<svg viewBox="0 0 1497 400" xmlns="http://www.w3.org/2000/svg"><g><g><g><g><g><line x1="58.60000133514404" y1="374.5999984741209" x2="53.60000133514404" y2="374.5999984741209" style="visibility: inherit;" fill="rgb(0, 0, 0)" stroke="rgb(204, 204, 204)" stroke-width="1px"></line><line x1="58.60000133514404" y1="327.77499866485584" x2="53.60000133514404" y2="327.77499866485584" style="visibility: inherit;" fill="rgb(0, 0, 0)" stroke="rgb(204, 204, 204)" stroke-width="1px"></line><line x1="58.60000133514404" y1="280.9499988555907" x2="53.60000133514404" y2="280.9499988555907" style="visibility: inherit;" fill="rgb(0, 0, 0)" stroke="rgb(204, 204, 204)" stroke-width="1px"></line><line x1="58.60000133514404" y1="234.12499904632557" x2="53.60000133514404" y2="234.12499904632557" style="visibility: inherit;" fill="rgb(0, 0, 0)" stroke="rgb(204, 204, 204)" stroke-width="1px"></line><line x1="58.60000133514404" y1="187.29999923706046" x2="53.60000133514404" y2="187.29999923706046" style="visibility: inherit;" fill="rgb(0, 0, 0)" stroke="rgb(204, 204, 204)" stroke-width="1px"></line><line x1="58.60000133514404" y1="140.47499942779538" x2="53.60000133514404" y2="140.47499942779538" style="visibility: inherit;" fill="rgb(0, 0, 0)" stroke="rgb(204, 204, 204)" stroke-width="1px"></line><line x1="58.60000133514404" y1="93.64999961853022" x2="53.60000133514404" y2="93.64999961853022" style="visibility: inherit;" fill="rgb(0, 0, 0)" stroke="rgb(204, 204, 204)" stroke-width="1px"></line><line x1="58.60000133514404" y1="46.82499980926514" x2="53.60000133514404" y2="46.82499980926514" style="visibility: inherit;" fill="rgb(0, 0, 0)" stroke="rgb(204, 204, 204)" stroke-width="1px"></line><line x1="58.60000133514404" y1="0" x2="53.60000133514404" y2="0" style="visibility: inherit;" fill="rgb(0, 0, 0)" stroke="rgb(204, 204, 204)" stroke-width="1px"></line></g><g transform="translate(48.60000133514404, 0)"><text style="text-anchor: end; visibility: hidden; font-family: &quot;Helvetica Neue&quot;, sans-serif; font-size: 12px; font-weight: 200;" x="0" y="374.5999984741209" dx="0em" dy="0.3em" fill="rgb(50, 49, 63)" stroke="none" stroke-width="1px">-0.01</text><text style="text-anchor: end; visibility: inherit; font-family: &quot;Helvetica Neue&quot;, sans-serif; font-size: 12px; font-weight: 200;" x="0" y="327.77499866485584" dx="0em" dy="0.3em" fill="rgb(50, 49, 63)" stroke="none" stroke-width="1px">0</text><text style="text-anchor: end; visibility: inherit; font-family: &quot;Helvetica Neue&quot;, sans-serif; font-size: 12px; font-weight: 200;" x="0" y="280.9499988555907" dx="0em" dy="0.3em" fill="rgb(50, 49, 63)" stroke="none" stroke-width="1px">0.01</text><text style="text-anchor: end; visibility: inherit; font-family: &quot;Helvetica Neue&quot;, sans-serif; font-size: 12px; font-weight: 200;" x="0" y="234.12499904632557" dx="0em" dy="0.3em" fill="rgb(50, 49, 63)" stroke="none" stroke-width="1px">0.02</text><text style="text-anchor: end; visibility: inherit; font-family: &quot;Helvetica Neue&quot;, sans-serif; font-size: 12px; font-weight: 200;" x="0" y="187.29999923706046" dx="0em" dy="0.3em" fill="rgb(50, 49, 63)" stroke="none" stroke-width="1px">0.03</text><text style="text-anchor: end; visibility: inherit; font-family: &quot;Helvetica Neue&quot;, sans-serif; font-size: 12px; font-weight: 200;" x="0" y="140.47499942779538" dx="0em" dy="0.3em" fill="rgb(50, 49, 63)" stroke="none" stroke-width="1px">0.04</text><text style="text-anchor: end; visibility: inherit; font-family: &quot;Helvetica Neue&quot;, sans-serif; font-size: 12px; font-weight: 200;" x="0" y="93.64999961853022" dx="0em" dy="0.3em" fill="rgb(50, 49, 63)" stroke="none" stroke-width="1px">0.05</text><text style="text-anchor: end; visibility: inherit; font-family: &quot;Helvetica Neue&quot;, sans-serif; font-size: 12px; font-weight: 200;" x="0" y="46.82499980926514" dx="0em" dy="0.3em" fill="rgb(50, 49, 63)" stroke="none" stroke-width="1px">0.06</text><text style="text-anchor: end; visibility: hidden; font-family: &quot;Helvetica Neue&quot;, sans-serif; font-size: 12px; font-weight: 200;" x="0" y="0" dx="0em" dy="0.3em" fill="rgb(50, 49, 63)" stroke="none" stroke-width="1px">0.07</text></g><line x1="58.60000133514404" y1="0" x2="58.60000133514404" y2="374.5999984741211" fill="rgb(0, 0, 0)" stroke="rgb(204, 204, 204)" stroke-width="1px"></line></g></g><g transform="translate(58, 0)" clip-path="url(#clip_0)"><clipPath id="clip_0"><rect width="1438" height="374"></rect></clipPath><g><g><g><line x1="3.4068155672288357e-13" y1="0" x2="3.4068155672288357e-13" y2="374.5999984741211" fill="rgb(0, 0, 0)" stroke="rgb(60, 60, 60)" stroke-width="1px" opacity="0.25"></line><line x1="119.86666655540496" y1="0" x2="119.86666655540496" y2="374.5999984741211" fill="rgb(0, 0, 0)" stroke="rgb(60, 60, 60)" stroke-width="1px" opacity="0.25"></line><line x1="239.73333311080958" y1="0" x2="239.73333311080958" y2="374.5999984741211" fill="rgb(0, 0, 0)" stroke="rgb(60, 60, 60)" stroke-width="1px" opacity="0.25"></line><line x1="359.5999996662142" y1="0" x2="359.5999996662142" y2="374.5999984741211" fill="rgb(0, 0, 0)" stroke="rgb(60, 60, 60)" stroke-width="1px" opacity="0.25"></line><line x1="479.46666622161877" y1="0" x2="479.46666622161877" y2="374.5999984741211" fill="rgb(0, 0, 0)" stroke="rgb(60, 60, 60)" stroke-width="1px" opacity="0.25"></line><line x1="599.3333327770234" y1="0" x2="599.3333327770234" y2="374.5999984741211" fill="rgb(0, 0, 0)" stroke="rgb(60, 60, 60)" stroke-width="1px" opacity="0.25"></line><line x1="719.1999993324281" y1="0" x2="719.1999993324281" y2="374.5999984741211" fill="rgb(0, 0, 0)" stroke="rgb(60, 60, 60)" stroke-width="1px" opacity="0.25"></line><line x1="839.0666658878326" y1="0" x2="839.0666658878326" y2="374.5999984741211" fill="rgb(0, 0, 0)" stroke="rgb(60, 60, 60)" stroke-width="1px" opacity="0.25"></line><line x1="958.9333324432373" y1="0" x2="958.9333324432373" y2="374.5999984741211" fill="rgb(0, 0, 0)" stroke="rgb(60, 60, 60)" stroke-width="1px" opacity="0.25"></line><line x1="1078.799998998642" y1="0" x2="1078.799998998642" y2="374.5999984741211" fill="rgb(0, 0, 0)" stroke="rgb(60, 60, 60)" stroke-width="1px" opacity="0.25"></line><line x1="1198.6666655540466" y1="0" x2="1198.6666655540466" y2="374.5999984741211" fill="rgb(0, 0, 0)" stroke="rgb(60, 60, 60)" stroke-width="1px" opacity="0.25"></line><line x1="1318.5333321094513" y1="0" x2="1318.5333321094513" y2="374.5999984741211" fill="rgb(0, 0, 0)" stroke="rgb(60, 60, 60)" stroke-width="1px" opacity="0.25"></line><line x1="1438.3999986648557" y1="0" x2="1438.3999986648557" y2="374.5999984741211" fill="rgb(0, 0, 0)" stroke="rgb(60, 60, 60)" stroke-width="1px" opacity="0.25"></line></g><g><line x1="0" y1="374.5999984741209" x2="1438.399998664856" y2="374.5999984741209" fill="rgb(0, 0, 0)" stroke="rgb(60, 60, 60)" stroke-width="1px" opacity="0.25"></line><line x1="0" y1="327.77499866485584" x2="1438.399998664856" y2="327.77499866485584" fill="rgb(0, 0, 0)" stroke="rgb(60, 60, 60)" stroke-width="1px" opacity="0.25"></line><line x1="0" y1="280.9499988555907" x2="1438.399998664856" y2="280.9499988555907" fill="rgb(0, 0, 0)" stroke="rgb(60, 60, 60)" stroke-width="1px" opacity="0.25"></line><line x1="0" y1="234.12499904632557" x2="1438.399998664856" y2="234.12499904632557" fill="rgb(0, 0, 0)" stroke="rgb(60, 60, 60)" stroke-width="1px" opacity="0.25"></line><line x1="0" y1="187.29999923706046" x2="1438.399998664856" y2="187.29999923706046" fill="rgb(0, 0, 0)" stroke="rgb(60, 60, 60)" stroke-width="1px" opacity="0.25"></line><line x1="0" y1="140.47499942779538" x2="1438.399998664856" y2="140.47499942779538" fill="rgb(0, 0, 0)" stroke="rgb(60, 60, 60)" stroke-width="1px" opacity="0.25"></line><line x1="0" y1="93.64999961853022" x2="1438.399998664856" y2="93.64999961853022" fill="rgb(0, 0, 0)" stroke="rgb(60, 60, 60)" stroke-width="1px" opacity="0.25"></line><line x1="0" y1="46.82499980926514" x2="1438.399998664856" y2="46.82499980926514" fill="rgb(0, 0, 0)" stroke="rgb(60, 60, 60)" stroke-width="1px" opacity="0.25"></line><line x1="0" y1="0" x2="1438.399998664856" y2="0" fill="rgb(0, 0, 0)" stroke="rgb(60, 60, 60)" stroke-width="1px" opacity="0.25"></line></g></g></g><g><g><line x1="0" y1="327.77499866485584" x2="1438.399998664856" y2="327.77499866485584" fill="rgb(0, 0, 0)" stroke="rgb(153, 153, 153)" stroke-width="1.5px"></line></g></g><g><g><line x1="119.86666655540496" y1="0" x2="119.86666655540496" y2="374.5999984741211" fill="rgb(0, 0, 0)" stroke="rgb(153, 153, 153)" stroke-width="1.5px"></line></g></g><g><g><g><g><g><path style="fill: none;" stroke="rgb(255, 112, 67)" stroke-width="2px" d="M125.85999988317519,78.31329315814992L131.8533332109454,267.8612236609186L137.84666653871565,300.8991825434356L143.8399998664859,312.40124860509815L149.8333331942561,316.8098291955735L155.82666652202636,319.043265685849L161.81999984979657,320.71125574423445L167.81333317756682,321.50355876259687L173.80666650533703,322.0742464727335L179.79999983310728,322.34120115452987L185.7933331608775,322.1156975428477L191.78666648864774,321.95043892224777L197.77999981641796,321.9799716036378L203.7733331441882,322.24389272189364L209.76666647195842,322.29770426878804L215.75999979972866,322.37899123403525L221.75333312749888,322.4584188128967L227.74666645526912,322.2263024142765L233.73999978303934,322.3548633653145L239.73333311080958,322.27192688285726L245.7266664385798,322.17440749081584L251.71999976635004,321.9881396029354L257.7133330941203,322.2803003904127L263.70666642189053,322.4289711694065L269.6999997496607,322.5301515520568L275.69333307743096,322.4032215843276L281.6866664052012,322.6072525811984L287.67999973297145,322.55946945823837L293.67333306074164,322.2959162924335L299.6666663885119,322.5095135079158L305.65999971628213,322.4662995367252L311.6533330440523,322.0701090518399L317.64666637182256,321.93377476457766L323.6399996995928,321.29293623826294L329.63333302736305,322.09256777921996L335.62666635513324,322.49482539118634L341.61999968290354,322.4970129366469L347.6133330106737,322.30237263144056L353.606666338444,322.50560449009924L359.5999996662142,322.267666266032L365.59333299398446,321.6175057325103L371.58666632175465,322.48793623107395L377.57999964952484,322.3736403877255L383.57333297729514,322.3483465185711L389.5666663050654,322.43681537054727L395.55999963283557,322.6367978002275L401.5533329606058,322.2843604050129L407.54666628837606,322.5305789220147L413.5399996161463,322.4900136633566L419.5333329439165,322.72005371992367L425.52666627168674,322.8797036549407L431.51999959945704,322.88763398421077L437.5133329272272,322.7630512805616L443.5066662549974,322.88530416380246L449.49999958276766,322.92778113986157L455.49333291053796,322.8167679774908L461.48666623830815,322.9012253300789L467.47999956607833,322.8091265590342L473.4733328938486,322.85423262349514L479.46666622161877,322.9480310623061L485.45999954938907,322.8971037175129L491.4533328771593,322.95026494251977L497.4466662049295,322.96036319311963L503.4399995326997,322.8925018588589L509.43333286047,322.8039261643933L515.4266661882402,322.8901022637636L521.4199995160104,322.9687906670346L527.4133328437806,322.9298880083403L533.4066661715509,322.97517396066615L539.3999994993211,322.859016550473L545.3933328270914,322.9540780201417L551.3866661548616,322.9418347430311L557.3799994826319,322.8218702514782L563.3733328104021,322.8967673817169L569.3666661381723,322.92624337117377L575.3599994659425,322.95226006247634L581.3533327937128,322.9359077104388L587.346666121483,322.78999739249974L593.3399994492532,322.9635352158047L599.3333327770234,322.97032898083717L605.3266661047937,322.8897784656067L611.3199994325639,322.7348928334368L617.3133327603341,322.86859421649405L623.3066660881043,322.89025653123565L629.2999994158746,322.9433289025396L635.2933327436449,322.8971604094461L641.2866660714151,322.9089850384346L647.2799993991853,322.8783784810024L653.2733327269555,322.9160491803792L659.2666660547258,322.9512526904327L665.259999382496,322.90641972845765L671.2533327102662,322.9469789908536L677.2466660380364,322.92611199852087L683.2399993658067,322.839676969648L689.2333326935769,322.8769421036566L695.2266660213471,322.89802932234517L701.2199993491173,322.8719793790433L707.2133326768876,322.9521292349382L713.2066660046578,322.9196769189888L719.1999993324281,322.97857057062504L725.1933326601984,322.9859814055457L731.1866659879686,322.9073382467983L737.1799993157388,322.9850688834672L743.173332643509,322.99122213867753L749.1666659712791,322.97596873796033L755.1599992990494,323.00955925349155L761.1533326268196,322.60776716951506L767.1466659545898,322.9936239142318L773.1399992823602,322.9676688208951L779.1333326101304,322.9315315292881L785.1266659379006,323.0052048769306L791.1199992656708,322.96315090991146L797.1133325934411,322.9993061903049L803.1066659212113,322.88157394362133L809.0999992489815,323.0333954858252L815.0933325767517,323.012512685165L821.0866659045221,322.9593165728146L827.0799992322923,322.94829108203817L833.0733325600625,322.93658038203074L839.0666658878326,322.94048394869986L845.0599992156029,322.94062567853285L851.0533325433731,322.9818341725868L857.0466658711433,322.9968504483911L863.0399991989135,322.99565555687616L869.0333325266839,323.0288056196956L875.0266658544541,322.86620879438203L881.0199991822243,322.95218374641246L887.0133325099946,322.85412414566144L893.0066658377648,322.99935743109063L898.999999165535,323.0004525666078L904.9933324933052,322.94101052954085L910.9866658210753,322.94494734820927L916.9799991488456,323.00593260511147L922.973332476616,322.9082916524825L928.9666658043861,322.86165926674335L934.9599991321564,322.93841523825307L940.9533324599266,322.94079902502085L946.9466657876968,323.02714356484654L952.939999115467,322.91304069211685L958.9333324432373,322.90523464900804L964.9266657710075,322.97419820527756L970.9199990987778,323.01435517299376L976.9133324265481,322.9928498512978L982.9066657543183,323.0324371741084L988.8999990820885,322.87847224073806L994.8933324098587,322.92891552364017L1000.8866657376288,322.98437876820356L1006.8799990653991,322.8878863723364L1012.8733323931693,322.95657137497267L1018.8666657209396,323.0402295893486L1024.8599990487098,322.9860162928892L1030.85333237648,322.87543104559114L1036.8466657042504,322.9621615266543L1042.8399990320206,322.8350129679134L1048.8333323597908,322.9792323399221L1054.826665687561,322.8249087210514L1060.8199990153312,322.9581091436605L1066.8133323431014,322.92781275651663L1072.8066656708718,322.743545984855L1078.799998998642,322.98353493058255L1084.7933323264122,322.9725884814437L1090.7866656541823,322.8529494233919L1096.7799989819525,322.93835364028723L1102.7733323097227,323.00963120863753L1108.7666656374931,322.84968854700384L1114.7599989652633,322.957215700598L1120.7533322930335,322.9969562006511L1126.746665620804,323.05156252483965L1132.739998948574,322.8902892381202L1138.7333322763443,322.99570134651447L1144.7266656041145,322.997440807657L1150.7199989318847,322.9316814358423L1156.7133322596549,322.8495135651716L1162.706665587425,323.0590938301184L1168.6999989151955,322.86229977656546L1174.6933322429657,322.89352067831214L1180.6866655707358,323.011336872666L1186.679998898506,322.9642847485753L1192.6733322262762,322.8898733155719L1198.6666655540466,322.9545168375092L1204.6599988818168,322.988455136246L1210.653332209587,322.9965986053802L1216.6466655373572,322.9642733011657L1222.6399988651276,322.95897424075645L1228.6333321928978,322.89921276645055L1234.626665520668,322.6571796404396L1240.6199988484382,322.9908394681285L1246.6133321762084,322.9187720285167L1252.6066655039785,322.96504300318173L1258.5999988317487,322.95101611063455L1264.593332159519,323.02190773774737L1270.5866654872893,323.0546658630672L1276.5799988150595,322.94529295095583L1282.5733321428297,322.98782552871864L1288.5666654706001,322.95407474945324L1294.5599987983703,322.8511085709074L1300.5533321261405,322.9633760423L1306.5466654539107,323.0159398215494L1312.5399987816809,322.9498790012823L1318.5333321094513,322.9846556864926" fill="none"></path></g></g></g></g></g></g><g transform="translate(58, 374)" clip-path="url(#clip_1)"><clipPath id="clip_1"><rect width="1438" height="25"></rect></clipPath><g><g><line x1="3.4068155672288357e-13" y1="0" x2="3.4068155672288357e-13" y2="5" style="visibility: inherit;" fill="rgb(0, 0, 0)" stroke="rgb(204, 204, 204)" stroke-width="1px"></line><line x1="119.86666655540496" y1="0" x2="119.86666655540496" y2="5" style="visibility: inherit;" fill="rgb(0, 0, 0)" stroke="rgb(204, 204, 204)" stroke-width="1px"></line><line x1="239.73333311080958" y1="0" x2="239.73333311080958" y2="5" style="visibility: inherit;" fill="rgb(0, 0, 0)" stroke="rgb(204, 204, 204)" stroke-width="1px"></line><line x1="359.5999996662142" y1="0" x2="359.5999996662142" y2="5" style="visibility: inherit;" fill="rgb(0, 0, 0)" stroke="rgb(204, 204, 204)" stroke-width="1px"></line><line x1="479.46666622161877" y1="0" x2="479.46666622161877" y2="5" style="visibility: inherit;" fill="rgb(0, 0, 0)" stroke="rgb(204, 204, 204)" stroke-width="1px"></line><line x1="599.3333327770234" y1="0" x2="599.3333327770234" y2="5" style="visibility: inherit;" fill="rgb(0, 0, 0)" stroke="rgb(204, 204, 204)" stroke-width="1px"></line><line x1="719.1999993324281" y1="0" x2="719.1999993324281" y2="5" style="visibility: inherit;" fill="rgb(0, 0, 0)" stroke="rgb(204, 204, 204)" stroke-width="1px"></line><line x1="839.0666658878326" y1="0" x2="839.0666658878326" y2="5" style="visibility: inherit;" fill="rgb(0, 0, 0)" stroke="rgb(204, 204, 204)" stroke-width="1px"></line><line x1="958.9333324432373" y1="0" x2="958.9333324432373" y2="5" style="visibility: inherit;" fill="rgb(0, 0, 0)" stroke="rgb(204, 204, 204)" stroke-width="1px"></line><line x1="1078.799998998642" y1="0" x2="1078.799998998642" y2="5" style="visibility: inherit;" fill="rgb(0, 0, 0)" stroke="rgb(204, 204, 204)" stroke-width="1px"></line><line x1="1198.6666655540466" y1="0" x2="1198.6666655540466" y2="5" style="visibility: inherit;" fill="rgb(0, 0, 0)" stroke="rgb(204, 204, 204)" stroke-width="1px"></line><line x1="1318.5333321094513" y1="0" x2="1318.5333321094513" y2="5" style="visibility: inherit;" fill="rgb(0, 0, 0)" stroke="rgb(204, 204, 204)" stroke-width="1px"></line><line x1="1438.3999986648557" y1="0" x2="1438.3999986648557" y2="5" style="visibility: inherit;" fill="rgb(0, 0, 0)" stroke="rgb(204, 204, 204)" stroke-width="1px"></line></g><g transform="translate(0, 8)"><text style="text-anchor: middle; visibility: hidden; font-family: &quot;Helvetica Neue&quot;, sans-serif; font-size: 12px; font-weight: 200;" x="3.4068155672288357e-13" y="0" dx="0em" dy="0.95em" fill="rgb(50, 49, 63)" stroke="none" stroke-width="1px">-20</text><text style="text-anchor: middle; visibility: inherit; font-family: &quot;Helvetica Neue&quot;, sans-serif; font-size: 12px; font-weight: 200;" x="119.86666655540496" y="0" dx="0em" dy="0.95em" fill="rgb(50, 49, 63)" stroke="none" stroke-width="1px">0</text><text style="text-anchor: middle; visibility: inherit; font-family: &quot;Helvetica Neue&quot;, sans-serif; font-size: 12px; font-weight: 200;" x="239.73333311080958" y="0" dx="0em" dy="0.95em" fill="rgb(50, 49, 63)" stroke="none" stroke-width="1px">20</text><text style="text-anchor: middle; visibility: inherit; font-family: &quot;Helvetica Neue&quot;, sans-serif; font-size: 12px; font-weight: 200;" x="359.5999996662142" y="0" dx="0em" dy="0.95em" fill="rgb(50, 49, 63)" stroke="none" stroke-width="1px">40</text><text style="text-anchor: middle; visibility: inherit; font-family: &quot;Helvetica Neue&quot;, sans-serif; font-size: 12px; font-weight: 200;" x="479.46666622161877" y="0" dx="0em" dy="0.95em" fill="rgb(50, 49, 63)" stroke="none" stroke-width="1px">60</text><text style="text-anchor: middle; visibility: inherit; font-family: &quot;Helvetica Neue&quot;, sans-serif; font-size: 12px; font-weight: 200;" x="599.3333327770234" y="0" dx="0em" dy="0.95em" fill="rgb(50, 49, 63)" stroke="none" stroke-width="1px">80</text><text style="text-anchor: middle; visibility: inherit; font-family: &quot;Helvetica Neue&quot;, sans-serif; font-size: 12px; font-weight: 200;" x="719.1999993324281" y="0" dx="0em" dy="0.95em" fill="rgb(50, 49, 63)" stroke="none" stroke-width="1px">100</text><text style="text-anchor: middle; visibility: inherit; font-family: &quot;Helvetica Neue&quot;, sans-serif; font-size: 12px; font-weight: 200;" x="839.0666658878326" y="0" dx="0em" dy="0.95em" fill="rgb(50, 49, 63)" stroke="none" stroke-width="1px">120</text><text style="text-anchor: middle; visibility: inherit; font-family: &quot;Helvetica Neue&quot;, sans-serif; font-size: 12px; font-weight: 200;" x="958.9333324432373" y="0" dx="0em" dy="0.95em" fill="rgb(50, 49, 63)" stroke="none" stroke-width="1px">140</text><text style="text-anchor: middle; visibility: inherit; font-family: &quot;Helvetica Neue&quot;, sans-serif; font-size: 12px; font-weight: 200;" x="1078.799998998642" y="0" dx="0em" dy="0.95em" fill="rgb(50, 49, 63)" stroke="none" stroke-width="1px">160</text><text style="text-anchor: middle; visibility: inherit; font-family: &quot;Helvetica Neue&quot;, sans-serif; font-size: 12px; font-weight: 200;" x="1198.6666655540466" y="0" dx="0em" dy="0.95em" fill="rgb(50, 49, 63)" stroke="none" stroke-width="1px">180</text><text style="text-anchor: middle; visibility: inherit; font-family: &quot;Helvetica Neue&quot;, sans-serif; font-size: 12px; font-weight: 200;" x="1318.5333321094513" y="0" dx="0em" dy="0.95em" fill="rgb(50, 49, 63)" stroke="none" stroke-width="1px">200</text><text style="text-anchor: middle; visibility: hidden; font-family: &quot;Helvetica Neue&quot;, sans-serif; font-size: 12px; font-weight: 200;" x="1438.3999986648557" y="0" dx="0em" dy="0.95em" fill="rgb(50, 49, 63)" stroke="none" stroke-width="1px">220</text></g><line x1="0" y1="0" x2="1438.399998664856" y2="0" fill="rgb(0, 0, 0)" stroke="rgb(204, 204, 204)" stroke-width="1px"></line></g></g></g></g></svg>